<svg width="1200" height="630" viewBox="0 0 1200 630" fill="none" xmlns="http://www.w3.org/2000/svg">
  <!-- Background gradient -->
  <rect width="1200" height="630" fill="#18181b"/>
  <rect width="1200" height="630" fill="url(#gradient)" opacity="0.5"/>
  
  <!-- Grid pattern -->
  <defs>
    <pattern id="grid" width="60" height="60" patternUnits="userSpaceOnUse">
      <path d="M 60 0 L 0 0 0 60" fill="none" stroke="#27272a" stroke-width="1"/>
    </pattern>
    <linearGradient id="gradient" x1="0%" y1="0%" x2="100%" y2="100%">
      <stop offset="0%" style="stop-color:#3f3f46;stop-opacity:0.3" />
      <stop offset="100%" style="stop-color:#18181b;stop-opacity:0" />
    </linearGradient>
    <linearGradient id="accent" x1="0%" y1="0%" x2="100%" y2="0%">
      <stop offset="0%" style="stop-color:#3b82f6" />
      <stop offset="100%" style="stop-color:#8b5cf6" />
    </linearGradient>
  </defs>
  <rect width="1200" height="630" fill="url(#grid)" opacity="0.4"/>
  
  <!-- Decorative elements - floating cards -->
  <g opacity="0.15">
    <rect x="850" y="80" width="280" height="160" rx="16" fill="#3f3f46"/>
    <rect x="880" y="280" width="240" height="140" rx="16" fill="#3f3f46"/>
    <rect x="70" y="380" width="200" height="120" rx="16" fill="#3f3f46"/>
  </g>
  
  <!-- Accent line -->
  <rect x="100" y="250" width="80" height="6" rx="3" fill="url(#accent)"/>
  
  <!-- Main title -->
  <text x="100" y="330" font-family="system-ui, -apple-system, sans-serif" font-size="72" font-weight="700" fill="#fafafa">
    NeoWarehouse
  </text>
  
  <!-- Subtitle -->
  <text x="100" y="390" font-family="system-ui, -apple-system, sans-serif" font-size="28" font-weight="400" fill="#a1a1aa">
    Sistema de Gestión de Inventario
  </text>
  
  <!-- Feature badges -->
  <g transform="translate(100, 440)">
    <!-- Badge 1 -->
    <rect x="0" y="0" width="140" height="40" rx="20" fill="#27272a" stroke="#3f3f46" stroke-width="1"/>
    <text x="70" y="26" font-family="system-ui, sans-serif" font-size="14" font-weight="500" fill="#d4d4d8" text-anchor="middle">Productos</text>
    
    <!-- Badge 2 -->
    <rect x="160" y="0" width="140" height="40" rx="20" fill="#27272a" stroke="#3f3f46" stroke-width="1"/>
    <text x="230" y="26" font-family="system-ui, sans-serif" font-size="14" font-weight="500" fill="#d4d4d8" text-anchor="middle">Categorías</text>
    
    <!-- Badge 3 -->
    <rect x="320" y="0" width="140" height="40" rx="20" fill="#27272a" stroke="#3f3f46" stroke-width="1"/>
    <text x="390" y="26" font-family="system-ui, sans-serif" font-size="14" font-weight="500" fill="#d4d4d8" text-anchor="middle">Inventario</text>
  </g>
  
  <!-- Dashboard preview mockup -->
  <g transform="translate(700, 150)">
    <!-- Window frame -->
    <rect x="0" y="0" width="420" height="330" rx="12" fill="#27272a" stroke="#3f3f46" stroke-width="1"/>
    
    <!-- Window header -->
    <rect x="0" y="0" width="420" height="40" rx="12" fill="#3f3f46"/>
    <rect x="0" y="28" width="420" height="12" fill="#3f3f46"/>
    
    <!-- Window dots -->
    <circle cx="20" cy="20" r="6" fill="#f87171"/>
    <circle cx="44" cy="20" r="6" fill="#fbbf24"/>
    <circle cx="68" cy="20" r="6" fill="#4ade80"/>
    
    <!-- Sidebar mockup -->
    <rect x="12" y="52" width="100" height="266" rx="8" fill="#18181b"/>
    <rect x="24" y="68" width="76" height="24" rx="4" fill="#3b82f6" opacity="0.3"/>
    <rect x="24" y="100" width="76" height="24" rx="4" fill="#3f3f46"/>
    <rect x="24" y="132" width="76" height="24" rx="4" fill="#3f3f46"/>
    <rect x="24" y="164" width="76" height="24" rx="4" fill="#3f3f46"/>
    
    <!-- Content area -->
    <rect x="124" y="52" width="284" height="266" rx="8" fill="#18181b"/>
    
    <!-- Stats cards -->
    <rect x="136" y="64" width="128" height="70" rx="6" fill="#27272a"/>
    <rect x="148" y="76" width="60" height="10" rx="2" fill="#52525b"/>
    <rect x="148" y="96" width="80" height="20" rx="2" fill="#3b82f6"/>
    
    <rect x="272" y="64" width="128" height="70" rx="6" fill="#27272a"/>
    <rect x="284" y="76" width="60" height="10" rx="2" fill="#52525b"/>
    <rect x="284" y="96" width="80" height="20" rx="2" fill="#22c55e"/>
    
    <!-- Table mockup -->
    <rect x="136" y="146" width="264" height="160" rx="6" fill="#27272a"/>
    <rect x="148" y="158" width="240" height="20" rx="2" fill="#3f3f46"/>
    <rect x="148" y="186" width="240" height="1" fill="#3f3f46"/>
    <rect x="148" y="196" width="200" height="12" rx="2" fill="#52525b"/>
    <rect x="148" y="220" width="180" height="12" rx="2" fill="#52525b"/>
    <rect x="148" y="244" width="220" height="12" rx="2" fill="#52525b"/>
    <rect x="148" y="268" width="160" height="12" rx="2" fill="#52525b"/>
  </g>
</svg>